[center]::::::::::::::Enjoy:Another:Release:From:T0XiC::::::::::::::



File:: Let.Me.In.2010.DVDRIP.READNFO.XViD-T0XiC-iNK

Video Source:: ....Korean DVDRip

Audio Source:: ....thx

Language::English

IMDB: http://www.imdb.com/title/tt1228987/



A bullied young boy befriends a young female vampire who lives in

secrecy with her guardian.



Specs::



General



Format                           : AVI

Format/Info                      : Audio Video Interleave

File size                        : 749 MiB

Duration                         : 1h 55mn

Overall bit rate                 : 906 Kbps

Writing application              : VirtualDubMod 1.5.10.2 (build 2540/release)

Writing library                  : VirtualDubMod build 2540/release



Video

ID                               : 0

Format                           : MPEG-4 Visual

Format profile                   : Advanced Simple@L5

Format settings, BVOP            : Yes

Format settings, QPel            : No

Format settings, GMC             : No warppoints

Format settings, Matrix          : Default (H.263)

Muxing mode                      : Packed bitstream

Codec ID                         : XVID

Codec ID/Hint                    : XviD

Duration                         : 1h 55mn

Bit rate                         : 798 Kbps

Width                            : 720 pixels

Height                           : 304 pixels

Display aspect ratio             : 2.35:1

Frame rate                       : 29.970 fps

Color space                      : YUV

Chroma subsampling               : 4:2:0

Bit depth                        : 8 bits

Scan type                        : Progressive

Bits/(Pixel*Frame)               : 0.122

Stream size                      : 660 MiB (88%)

Writing library                  : XviD 1.2.1 (UTC 2008-12-04)



Audio

ID                               : 1

Format                           : MPEG Audio

Format version                   : Version 1

Format profile                   : Layer 3

Mode                             : Joint stereo

Mode extension                   : MS Stereo

Codec ID                         : 55

Codec ID/Hint                    : MP3

Duration                         : 1h 55mn

Bit rate mode                    : Constant

Bit rate                         : 96.0 Kbps

Channel(s)                       : 2 channels

Sampling rate                    : 44.1 KHz

Bit depth                        : 16 bits

Stream size                      : 79.4 MiB (11%)

Alignment                        : Split accross interleaves

Interleave, duration             : 33 ms (1.00 video frame)

Interleave, preload duration     : 500 ms







NOTES:: T0XiC-iNK brings you the Korean DVDRip of Let Me In. This has hard coded subs one line at

the bottom periodically throughout the movie. I will include a screen of it. Audio on source was

only at 96kb/s Stereo. Kept it as is. Enjoy





::Why Complain? Whats Free Is Free::



::iNK is currently a free agent looking for work, if you would like iNK's touch, give me a email at: ...digital.ink@live.com or MSN add me.



::We are always looking for friends with unreleased DVD's, Screeners, R5's, Audio, Cams, Silvers,

...and any other good sources you may have to offer - contact us: t0xicreleases@hushmail.com



::::::::::::::::::::::::::::::::::::   Respect To   :::::::::::::::::::::::::::::::::::::

::IMAGiNE,FLAWL3SS,Hive-CM8,DiGiTALiNK,Tranz,Vik,OneTwo,Joey,bob,& our friends on utn and PA::

                      "and to all of you who support us, Thank-You"
[/center]